<?xml version="1.0" standalone="no"?>
<!DOCTYPE svg PUBLIC "-//W3C//DTD SVG 20010904//EN"
 "http://www.w3.org/TR/2001/REC-SVG-20010904/DTD/svg10.dtd">
<svg version="1.0" xmlns="http://www.w3.org/2000/svg"
 width="835.000000pt" height="835.000000pt" viewBox="0 0 835.000000 835.000000"
 preserveAspectRatio="xMidYMid meet">
<metadata>
Created by potrace 1.11, written by Peter Selinger 2001-2013
</metadata>
<g transform="translate(0.000000,835.000000) scale(0.100000,-0.100000)"
fill="#000000" stroke="none">
<path d="M2535 8334 c-16 -2 -84 -11 -150 -20 -307 -41 -662 -160 -940 -315
-249 -139 -442 -287 -650 -500 -421 -431 -678 -957 -765 -1559 -30 -210 -30
-539 0 -755 111 -795 568 -1515 1235 -1946 169 -110 154 -92 144 -174 -11 -97
-11 -450 1 -565 106 -1017 767 -1901 1709 -2285 326 -132 619 -193 981 -202
655 -16 1229 168 1755 561 143 107 400 360 505 496 302 393 489 824 560 1296
27 175 37 493 21 659 -10 107 -9 121 5 130 192 119 308 202 446 322 390 339
693 814 837 1314 36 125 75 317 92 454 17 129 17 511 0 640 -97 773 -485 1443
-1103 1907 -851 638 -2017 725 -2967 220 l-74 -40 -101 54 c-261 137 -579 241
-886 290 -100 15 -577 29 -655 18z"/>
</g>
</svg>
